<svg width="512" height="512" fill="none" xmlns="http://www.w3.org/2000/svg"><path fill-rule="evenodd" clip-rule="evenodd" d="M40 152a8 8 0 018-8h380c6.627 0 12 5.373 12 12s-5.373 12-12 12h-60a8 8 0 00-8 8v56a8 8 0 008 8h96a8 8 0 018 8v72a8 8 0 01-8 8h-24.664c-3.808-22.702-23.552-40-47.336-40s-43.528 17.298-47.336 40H336V176a8 8 0 00-8-8h-72a8 8 0 00-8 8v80H40V152zm0 120h208v56h-96.664c-3.808-22.702-23.552-40-47.336-40s-43.528 17.298-47.336 40H48a8 8 0 01-8-8v-48zm424 72h-24.664c-3.808 22.702-23.552 40-47.336 40s-43.528-17.298-47.336-40H151.336c-3.808 22.702-23.552 40-47.336 40s-43.528-17.298-47.336-40H48c-13.255 0-24-10.745-24-24V152c0-13.255 10.745-24 24-24h380c15.464 0 28 12.536 28 28 0 14.106-10.431 25.776-24 27.716V224h32c13.255 0 24 10.745 24 24v72c0 13.255-10.745 24-24 24zm-48-120v-40h-40v40h40zm-96-40v144h-20V184h20zm-36 0v144h-20V184h20zm-132-8a8 8 0 018-8h56a8 8 0 018 8v56a8 8 0 01-8 8h-56a8 8 0 01-8-8v-56zm16 8v40h40v-40h-40zm-96-16a8 8 0 00-8 8v56a8 8 0 008 8h56a8 8 0 008-8v-56a8 8 0 00-8-8H72zm8 56v-40h40v40H80zm-8 112c0-17.673 14.327-32 32-32 17.673 0 32 14.327 32 32 0 17.673-14.327 32-32 32-17.673 0-32-14.327-32-32zm320-32c-17.673 0-32 14.327-32 32 0 17.673 14.327 32 32 32 17.673 0 32-14.327 32-32 0-17.673-14.327-32-32-32zm48-16c8.837 0 16-7.163 16-16s-7.163-16-16-16-16 7.163-16 16 7.163 16 16 16z" fill="url(#paint0_linear)"/><defs><linearGradient id="paint0_linear" x1="64" y1="56" x2="448" y2="440" gradientUnits="userSpaceOnUse"><stop stop-color="#FF003D"/><stop offset="1" stop-color="#3D00EB"/></linearGradient></defs></svg>