<svg xmlns="http://www.w3.org/2000/svg" viewBox="0 0 64 64"><path fill="#e3e8f6" d="M6 2h40v52H6z"/><path fill="#e3e8f6" d="M2 6h40v52H2z"/><path d="M42 6H2v16.5C2 42.106 16.998 58 35.5 58H42V6z" fill="#f8f7fe"/><path fill="#3079e6" d="M13 27h26v2H13zm0 4h26v2H13zm0 4h26v2H13zm0 4h26v2H13zm0 4h26v2H13zm0 4h17v2H13z"/><path fill="#2763bb" d="M6 28h4v4H6z"/><path fill="#3079e6" d="M32 47h2v2h-2z"/><g fill="#3079e6"><path d="M22 9c-4.411 0-8 3.589-8 8s3.589 8 8 8 8-3.589 8-8-3.589-8-8-8zm0 14c-3.309 0-6-2.691-6-6s2.691-6 6-6 6 2.691 6 6-2.691 6-6 6z"/><path d="M22 12c-1.654 0-3 1.346-3 3v6h2v-2h2v2h2v-6c0-1.654-1.346-3-3-3zm-1 5v-2a1.001 1.001 0 012 0v2h-2zm15-6h-2V9h-2v2h-2.001v2H32v2h2v-2h2z"/></g><path fill="#3079e6" d="M62 31l-3-3-27 27-4 7 7-4z"/><path fill="#2763bb" d="M32 55l3 3-7 4zm20.5-20.5L59 28l3 3-6.5 6.5z"/><path d="M10 28H6.034c.167 2.247 1.423 4 2.966 4h1v-4z" fill="#3079e6"/><path fill="#2763bb" d="M6 36h4v4H6z"/><path d="M10 36H6.034c.167 2.247 1.423 4 2.966 4h1v-4z" fill="#3079e6"/><path fill="#2763bb" d="M6 44h4v4H6z"/><path d="M10 44H6.034c.167 2.247 1.423 4 2.966 4h1v-4z" fill="#3079e6"/></svg>