<svg xmlns="http://www.w3.org/2000/svg" viewBox="0 0 48 48"><defs><style>.cls-1{fill:#e67244}.cls-2{fill:#a83d20}.cls-3{fill:#00cf66}.cls-4{fill:#fd3730}.cls-5{fill:#fac100}.cls-6{fill:#009ae0}.cls-7{fill:#eaeff0}</style></defs><g id="Shelf"><path class="cls-1" d="M37 46H11a5.006 5.006 0 01-5-5V7a5.006 5.006 0 015-5h26a5.006 5.006 0 015 5v34a5.006 5.006 0 01-5 5z"/><rect class="cls-2" x="9" y="5" width="30" height="38" rx="2"/><rect class="cls-3" x="21" y="22" width="4" height="10" rx="1"/><rect class="cls-4" x="32" y="22" width="4" height="10" rx="1"/><rect class="cls-3" x="28" y="22" width="4" height="10" rx="1"/><rect class="cls-5" x="25" y="24" width="3" height="8" rx="1"/><rect class="cls-6" x="36" y="24" width="3" height="8" rx="1"/><rect class="cls-6" x="18" y="24" width="3" height="8" rx="1"/><path class="cls-7" d="M32 24h4v1h-4zm-11 0h4v1h-4zm-3 2h3v1h-3zm7 0h3v1h-3z"/><rect class="cls-3" x="9" y="8" width="4" height="10" rx="1"/><rect class="cls-5" x="20" y="8" width="4" height="10" rx="1"/><rect class="cls-4" x="16" y="8" width="4" height="10" rx="1"/><rect class="cls-6" x="13" y="10" width="3" height="8" rx="1"/><rect class="cls-3" x="24" y="10" width="3" height="8" rx="1"/><rect class="cls-4" x="27" y="8" width="4" height="10" rx="1"/><path class="cls-7" d="M9 10h4v1H9zm7 0h4v1h-4zm11 0h4v1h-4zm-14 2h3v1h-3zm11 0h3v1h-3z"/><path d="M37 43H11a2 2 0 01-2-2v-9h30v9a2 2 0 01-2 2z" fill="#c6512b"/><path class="cls-1" d="M39 19H9a1 1 0 010-2h30a1 1 0 010 2zm0 12H9a1 1 0 000 2h14v11a1 1 0 002 0V33h14a1 1 0 000-2z"/><circle class="cls-2" cx="27" cy="38" r="1"/><circle class="cls-2" cx="21" cy="38" r="1"/></g></svg>