<svg width="64" height="64" fill="none" xmlns="http://www.w3.org/2000/svg"><path d="M24 50h-2v-3a1 1 0 00-2 0v3H5v-3a1 1 0 10-2 0v3H2a1 1 0 000 2h22a1 1 0 000-2z" fill="#006"/><path d="M56 7H6v26h17a1 1 0 011 1v3h32" fill="#20B2AD"/><path d="M58 3H4a2 2 0 00-2 2v4a2 2 0 002 2h2V7h50v4h2a2 2 0 002-2V5a2 2 0 00-2-2z" fill="#FF7F00"/><path d="M31 46a2 2 0 100-4 2 2 0 000 4z" fill="gold"/><path d="M49 26.38V19a8 8 0 00-16 0v7.38" fill="#FF7F00"/><path d="M42.5 11.145A7.984 7.984 0 0033 19v7.38h3V19a8 8 0 016.5-7.855z" fill="#DB6A03"/><path d="M43 24h-4v2h4v-2z" fill="#E5C200"/><path d="M36 25h10a4 4 0 014 4v8H32v-8a4 4 0 014-4z" fill="#9C02A0"/><path d="M38 35a4 4 0 01-4-4v-5.445A3.981 3.981 0 0032 29v8h18v-2H38z" fill="purple"/><path d="M41 30l-3-5h6l-3 5z" fill="gold"/><path d="M37 17h8v4a4 4 0 11-8 0v-4z" fill="gold"/><path d="M45 17h-8v2h8v-2z" fill="#E5C200"/><path d="M6 11h21v14a2 2 0 01-2 2H6V11z" fill="gold"/><path d="M14 15h-4v4h4v-4z" fill="purple"/><path d="M23 16h-5a1 1 0 010-2h5a1 1 0 010 2zm0 4h-5a1 1 0 010-2h5a1 1 0 010 2zm-6 4h-7a1 1 0 010-2h7a1 1 0 010 2zm6 0h-2a1 1 0 010-2h2a1 1 0 010 2z" fill="#006"/><path d="M43.62 25h-5.24a3.932 3.932 0 005.24 0zM38 21v-4h-1v4a4 4 0 004 4 4.13 4.13 0 00.5-.05A3.988 3.988 0 0138 21z" fill="#E5C200"/><path d="M59 36H23a1 1 0 000 2h7v3.184a3 3 0 102 0V38h27a1 1 0 000-2zm-28 9a1 1 0 110-2 1 1 0 010 2z" fill="#006"/><path d="M14 50h-4v2h4v-2z" fill="#DB6A03"/><path d="M16 47h7a1 1 0 001-1V34a1 1 0 00-1-1H3a1 1 0 00-1 1v12a1 1 0 001 1h5" fill="gold"/><path d="M10 43a4 4 0 01-4-4v-6H3a1 1 0 00-1 1v12a1 1 0 001 1h20a1 1 0 001-1v-3H10z" fill="#E5C200"/><path d="M12 51a4 4 0 100-8 4 4 0 000 8zm-4 0h8a2 2 0 012 2v8H6v-8a2 2 0 012-2z" fill="#FF7F00"/><path d="M18 41a2 2 0 100-4 2 2 0 000 4z" fill="purple"/><path d="M14 50a3.989 3.989 0 01-2.707-6.929 3.995 3.995 0 103.414 6.858c-.233.044-.47.068-.707.071z" fill="#DB6A03"/><path d="M15.445 51h-6.89a3.968 3.968 0 006.89 0z" fill="#DB6A03"/><path d="M8 55v-4a2 2 0 00-2 2v8h12v-2h-6a4 4 0 01-4-4z" fill="#DB6A03"/><path d="M41 54a4 4 0 100-8 4 4 0 000 8zm4 0h-8a2 2 0 00-2 2v5h12v-5a2 2 0 00-2-2z" fill="#FF7F00"/><path d="M56 41H42a1 1 0 00-1 1v4a3.985 3.985 0 012.62 7H57V42a1 1 0 00-1-1z" fill="#20B2AD"/><path d="M49 50a4 4 0 01-4-4v-5h-3a1 1 0 00-1 1v4a3.985 3.985 0 012.62 7H57v-3h-8z" fill="#1B8984"/><path d="M51 49a2 2 0 100-4 2 2 0 000 4z" fill="#FF7F00"/><path d="M43.62 53a3.962 3.962 0 01-2.483.986V54H45a2 2 0 012 2v1h9a4 4 0 004-4H43.62z" fill="gold"/><path d="M43 53h-4v2h4v-2z" fill="#DB6A03"/><path d="M43 53a3.989 3.989 0 01-2.707-6.929 3.995 3.995 0 103.414 6.858c-.233.044-.47.068-.707.071z" fill="#DB6A03"/><path d="M44.445 54h-6.89a3.967 3.967 0 006.89 0zM36 56v-1.723A1.994 1.994 0 0035 56v5h12v-1h-7a4 4 0 01-4-4z" fill="#DB6A03"/></svg>