<svg xmlns="http://www.w3.org/2000/svg" viewBox="0 0 512 512"><path fill="#e08122" d="M88 88h336v400H88z"/><path fill="#e08122" d="M88 312h336v176H88z"/><path fill="#fd9226" d="M144 408h224v80H144z"/><path fill="#cf771f" d="M88 88h336v16H88z"/><path d="M272 456v32h-32v-32a16 16 0 1132 0zm64 0v32h-32v-32a16 16 0 1132 0zm-128 0v32h-32v-32a16 16 0 1132 0z" fill="#e08122"/><path d="M264 456v32h-24v-32a16.012 16.012 0 0112-15.5 15.987 15.987 0 0112 15.5zm64 0v32h-24v-32a16.012 16.012 0 0112-15.5 15.987 15.987 0 0112 15.5zm-128 0v32h-24v-32a16.012 16.012 0 0112-15.5 15.987 15.987 0 0112 15.5z" fill="#cd761f"/><path fill="#ebebeb" d="M128 376h256v32H128z"/><path d="M232 262.18V280h-32v-17.82a14.2 14.2 0 0112-14.02 15.644 15.644 0 012.18-.16h3.64A14.182 14.182 0 01232 262.18zm-80 0V280h-32v-17.82a14.2 14.2 0 0112-14.02 15.644 15.644 0 012.18-.16h3.64A14.182 14.182 0 01152 262.18zm240 0V280h-32v-17.82a14.2 14.2 0 0112-14.02 15.644 15.644 0 012.18-.16h3.64A14.182 14.182 0 01392 262.18zm-80 0V280h-32v-17.82a14.2 14.2 0 0112-14.02 15.644 15.644 0 012.18-.16h3.64A14.182 14.182 0 01312 262.18zm-80-64V216h-32v-17.82a14.2 14.2 0 0112-14.02 15.644 15.644 0 012.18-.16h3.64A14.182 14.182 0 01232 198.18zm-80 0V216h-32v-17.82a14.2 14.2 0 0112-14.02 15.644 15.644 0 012.18-.16h3.64A14.182 14.182 0 01152 198.18zm240 0V216h-32v-17.82a14.2 14.2 0 0112-14.02 15.644 15.644 0 012.18-.16h3.64A14.182 14.182 0 01392 198.18zm-80 0V216h-32v-17.82a14.2 14.2 0 0112-14.02 15.644 15.644 0 012.18-.16h3.64A14.182 14.182 0 01312 198.18zm-80-64V152h-32v-17.82a14.2 14.2 0 0112-14.02 15.644 15.644 0 012.18-.16h3.64A14.182 14.182 0 01232 134.18zm-80 0V152h-32v-17.82a14.2 14.2 0 0112-14.02 15.644 15.644 0 012.18-.16h3.64A14.182 14.182 0 01152 134.18zm240 0V152h-32v-17.82a14.2 14.2 0 0112-14.02 15.644 15.644 0 012.18-.16h3.64A14.182 14.182 0 01392 134.18zm-80 0V152h-32v-17.82a14.2 14.2 0 0112-14.02 15.644 15.644 0 012.18-.16h3.64A14.182 14.182 0 01312 134.18z" fill="#6cbae5"/><path d="M224 262.18V280h-24v-17.82a14.2 14.2 0 0112-14.02 14.2 14.2 0 0112 14.02zm-80 0V280h-24v-17.82a14.2 14.2 0 0112-14.02 14.2 14.2 0 0112 14.02zm240 0V280h-24v-17.82a14.2 14.2 0 0112-14.02 14.2 14.2 0 0112 14.02zm-80 0V280h-24v-17.82a14.2 14.2 0 0112-14.02 14.2 14.2 0 0112 14.02zm-80-64V216h-24v-17.82a14.2 14.2 0 0112-14.02 14.2 14.2 0 0112 14.02zm-80 0V216h-24v-17.82a14.2 14.2 0 0112-14.02 14.2 14.2 0 0112 14.02zm240 0V216h-24v-17.82a14.2 14.2 0 0112-14.02 14.2 14.2 0 0112 14.02zm-80 0V216h-24v-17.82a14.2 14.2 0 0112-14.02 14.2 14.2 0 0112 14.02zm-80-64V152h-24v-17.82a14.2 14.2 0 0112-14.02 14.2 14.2 0 0112 14.02zm-80 0V152h-24v-17.82a14.2 14.2 0 0112-14.02 14.2 14.2 0 0112 14.02zm240 0V152h-24v-17.82a14.2 14.2 0 0112-14.02 14.2 14.2 0 0112 14.02zm-80 0V152h-24v-17.82a14.2 14.2 0 0112-14.02 14.2 14.2 0 0112 14.02z" fill="#8aced8"/><path fill="#ebebeb" d="M64 24h384v32H64z"/><path fill="#fd9226" d="M352 376H160l16-32h160l16 32z"/><path fill="#ebebeb" d="M80 56h352v32H80z"/><path fill="#cdcdcd" d="M80 56h352v16H80z"/><path d="M465.312 496a8 8 0 01-8-8v-32a8 8 0 0116 0v32a8 8 0 01-8 8zM48 496a8 8 0 01-8-8v-32a8 8 0 0116 0v32a8 8 0 01-8 8z" fill="#985713"/><path fill="#5e8569" d="M368 456h56v32h-56zm-280 0h56v32H88z"/><path fill="#ebebeb" d="M64 304h384v16H64z"/><path d="M465.311 384l-20.63 58.683A10 10 0 00454.115 456h20.249a10 10 0 009.538-13zm-418.622 0L28.1 443a10 10 0 009.538 13h20.247a10 10 0 009.434-13.317z" fill="#6b9777"/><path fill="#d9d9d9" d="M16 480h480v16H16z"/><path fill="#d17920" d="M88 320h336v8H88z"/><path fill="#e08122" d="M144 408h224v8H144z"/></svg>