<svg id="Layer_1" data-name="Layer 1" xmlns="http://www.w3.org/2000/svg" viewBox="0 0 256 256"><defs><style>.cls-1{fill:#fd0}.cls-2{fill:#40bdff}.cls-3{fill:#2197f7}.cls-4{fill:#effafe}.cls-10{fill:#263238}</style></defs><path class="cls-1" d="M52.16 226.93l21.69-4.34a2 2 0 012.05.84l12.34 18.35L95 213.2l-38.73 3.73zm77.02-3.5a2 2 0 012.05-.84l21.69 4.34-4.12-10-43.73-3.73 11.77 28.58z"/><path class="cls-2" d="M128.89 123.64a2 2 0 01-1.79 0l-48-26.51v34.63c.58 2.74 2 26.81 48.91 26.81 46.63 0 53.3-24.07 53.91-26.82V97.12z"/><path class="cls-3" d="M176.92 99.62v32.13c-.6 2.7-7.05 25.95-51.42 26.79h2.51c46.63 0 53.3-24.07 53.91-26.82v-34.6z"/><path class="cls-1" d="M100.21 208.76l19.34 1.65v-28l-19.34 1.65a1.92 1.92 0 01-.34 0l-19.34-1.65v28l19.34-1.65z"/><path class="cls-4" d="M181.92 177.08l-58.37 4.99v28.69l58.37 4.99v-38.67z"/><path d="M229.51 162.56a12.35 12.35 0 00-12.34 12.34v14.34a12.34 12.34 0 0024.68 0V174.9a12.35 12.35 0 00-12.34-12.34z" fill="#eb5639"/><path d="M229.51 162.56a12.26 12.26 0 00-4 .68 12.35 12.35 0 018.34 11.66v14.34a12.35 12.35 0 01-8.34 11.66 12.31 12.31 0 0016.34-11.66V174.9a12.35 12.35 0 00-12.34-12.34z" fill="#d84936"/><path class="cls-3" d="M241.38 65.92L136 12.24 28.62 65.92 136 119.61l105.38-53.69z"/><path fill="#228ed6" d="M136 12.24l-7.57 3.78 97.95 49.9-97.95 49.91 7.57 3.78 105.38-53.69L136 12.24z"/><path class="cls-4" d="M76.53 182.07l-53.38-4.99v38.67l53.38-5v-28.68z"/><path fill="#efc803" d="M114.55 182.84v27.15l5 .42v-28l-5 .43z"/><path d="M176.92 177.51v37.81l5 .43v-38.67l-5 .43zm-153.77-.43v.47l48.38 4.52v28.68l-48.38 4.53v.47l53.38-5v-28.68l-53.38-4.99z" fill="#e4ebed"/><path class="cls-10" d="M15 68.16l54.58 27.27v36.45a2.51 2.51 0 000 .41c.21 1.26 5.73 30.77 58.39 30.77s58.18-29.51 58.39-30.77a2.51 2.51 0 000-.41V95.43L223 77.14v81.13a16.85 16.85 0 00-14.34 16.63v14.34a16.85 16.85 0 0012.77 16.32L209 226.69a2.5 2.5 0 004.31 2.54l9.69-16.47V228a2.5 2.5 0 005 0v-15.2l9.68 16.46a2.5 2.5 0 004.31-2.54l-12.43-21.13a16.85 16.85 0 0012.77-16.32V174.9A16.85 16.85 0 00228 158.27V74.64l13-6.48a2.5 2.5 0 000-4.47L129.12 7.76a2.5 2.5 0 00-2.24 0L15 63.69a2.5 2.5 0 000 4.47zm166.39 63.48c-.5 2.25-7 26.42-53.42 26.42-46.65 0-52.9-23.93-53.42-26.42V97.93l52.31 26.15a2.5 2.5 0 002.24 0l52.31-26.15zm55.92 43.26v14.34a11.85 11.85 0 01-11.84 11.84 11.85 11.85 0 01-11.84-11.84V174.9a11.84 11.84 0 1123.68 0zM128 12.79l106.26 53.13L128 119.05 21.74 65.92z"/><path class="cls-10" d="M16.36 220.41L46 217.88l-4.45 10.79a2.5 2.5 0 002.8 3.4l23.72-4.75 13.5 20.07A2.5 2.5 0 0086 247l13.86-33.67h.4L114.1 247a2.5 2.5 0 004.39.44L132 227.33l23.72 4.75a2.5 2.5 0 002.8-3.4l-4.45-10.79 29.65 2.53h.21a2.5 2.5 0 002.5-2.5v-43a2.5 2.5 0 00-2.71-2.49L100 179.56l-83.67-7.15a2.5 2.5 0 00-2.71 2.49v43a2.5 2.5 0 002.74 2.51zm66.76 20.31l-11.81-17.57a2.5 2.5 0 00-2.57-1.06L48 226.26l3.65-8.85 42.61-3.64zm48.2-18.63a2.49 2.49 0 00-2.57 1.06l-11.82 17.57-11.1-27 42.61 3.64 3.65 8.85zM124 182.53l57.38-4.9v37.57l-31-2.65L124 210.3zM81 183l18.8 1.61a2.38 2.38 0 00.43 0L119 183v26.91l-18.8-1.61h-.43L81 209.87zm-62.38-5.33L76 182.53v27.77l-57.38 4.9z"/><path class="cls-1" d="M33 92.25h-4v-4a1 1 0 00-2 0v4h-4a1 1 0 100 2h4v4a1 1 0 002 0v-4h4a1 1 0 000-2zm181.26 31.85h-4v-4a1 1 0 00-2 0v4h-4a1 1 0 000 2h4v4a1 1 0 002 0v-4h4a1 1 0 100-2z"/><path class="cls-2" d="M199 16.14h-4v-4a1 1 0 10-2 0v4h-4a1 1 0 000 2h4v4a1 1 0 002 0v-4h4a1 1 0 000-2zM43 23.73a6 6 0 116-6 6 6 0 01-6 6zm0-10a4 4 0 104 4 4 4 0 00-4-4z"/><path class="cls-1" d="M28 165.15a6 6 0 116-6 6 6 0 01-6 6zm0-10a4 4 0 104 4 4 4 0 00-4-4zM226 40a6 6 0 116-6 6 6 0 01-6 6zm0-10a4 4 0 104 4 4 4 0 00-4-4z"/><path class="cls-2" d="M253.5 106.21h-2.59l1.83-1.83a1 1 0 00-1.41-1.41l-1.83 1.83v-2.59a1 1 0 10-2 0v2.59l-1.83-1.8a1 1 0 00-1.41 1.41l1.83 1.83h-2.59a1 1 0 000 2h2.59l-1.83 1.76a1 1 0 001.41 1.41l1.83-1.83v2.59a1 1 0 002 0v-2.59l1.83 1.83a1 1 0 001.41-1.41l-1.83-1.83h2.59a1 1 0 000-2zM193 232.5h-2.59l1.83-1.83a1 1 0 00-1.41-1.41l-1.83 1.83v-2.59a1 1 0 00-2 0v2.59l-1.83-1.83a1 1 0 00-1.41 1.41l1.83 1.83H183a1 1 0 000 2h2.59l-1.83 1.83a1 1 0 001.41 1.41l1.83-1.83v2.59a1 1 0 002 0v-2.59l1.83 1.83a1 1 0 001.41-1.41l-1.83-1.83H193a1 1 0 000-2zm-170.85 0h-2.58l1.83-1.83a1 1 0 00-1.4-1.41l-1.83 1.83v-2.59a1 1 0 00-2 0v2.59l-1.83-1.83a1 1 0 00-1.41 1.41l1.83 1.83h-2.61a1 1 0 000 2h2.59l-1.83 1.83a1 1 0 001.41 1.41l1.83-1.83v2.59a1 1 0 002 0v-2.59l1.85 1.83a1 1 0 001.41-1.41l-1.83-1.83h2.59a1 1 0 100-2z"/></svg>